<svg xmlns="http://www.w3.org/2000/svg" viewBox="0 0 64 64" width="64" height="64">
  <rect width="64" height="64" rx="12" fill="#16181a"/>
  <path d="M24 18h6v20.5c0 5.5-3.6 8.5-8.6 8.5-2.1 0-3.9-.5-5.4-1.4l1.7-4.6c1 .5 2 .8 3.1.8 2 0 3.2-1.2 3.2-3.6V18z" fill="#fafaf8"/>
  <path d="M43.6 47c-6.6 0-11-4.6-11-11.5v-6C32.6 22.6 37 18 43.6 18c5.3 0 9.2 3 10.4 7.9l-5.6 1.6c-.6-2.5-2.3-4-4.8-4-3 0-4.8 2.1-4.8 5.7v6.4c0 3.6 1.8 5.7 4.8 5.7 2.5 0 4.2-1.5 4.8-4l5.6 1.6C52.8 44 48.9 47 43.6 47z" fill="#0f6e63"/>
</svg>
